<svg width="16" height="16" viewBox="0 0 16 16" fill="none" xmlns="http://www.w3.org/2000/svg">
<path fill-rule="evenodd" clip-rule="evenodd" d="M7.99269 4.86161L4.41802 7.73828C4.13135 7.96895 3.71202 7.92361 3.48068 7.63695C3.25002 7.34961 3.29535 6.93028 3.58202 6.69895L7.58202 3.48028C7.82935 3.28161 8.18269 3.28361 8.42669 3.48828L12.4267 6.82161C12.71 7.05695 12.748 7.47695 12.512 7.76028C12.38 7.91828 12.1907 8.00028 12 8.00028C11.8494 8.00028 11.698 7.94895 11.5734 7.84561L7.99269 4.86161ZM7.58208 8.14728C7.82942 7.94795 8.18275 7.95061 8.42675 8.15461L12.4268 11.4879C12.7094 11.7239 12.7474 12.1439 12.5121 12.4266C12.3801 12.5853 12.1908 12.6666 11.9994 12.6666C11.8494 12.6666 11.6981 12.6159 11.5734 12.5119L7.99275 9.52861L4.41808 12.4046C4.13142 12.6359 3.71208 12.5906 3.48075 12.3033C3.24942 12.0166 3.29542 11.5973 3.58208 11.3659L7.58208 8.14728Z" fill="#A9161C"/>
</svg>
