<svg width="16" height="16" viewBox="0 0 16 16" fill="none" xmlns="http://www.w3.org/2000/svg">
<path fill-rule="evenodd" clip-rule="evenodd" d="M8.00001 8.00004C7.84867 8.00004 7.69667 7.94871 7.57334 7.84538L3.57334 4.51204C3.29067 4.27604 3.25267 3.85604 3.48801 3.57338C3.72401 3.29004 4.14334 3.25271 4.42667 3.48804L8.00734 6.47138L11.582 3.59538C11.8687 3.36471 12.2893 3.41004 12.5193 3.69671C12.7507 3.98338 12.7047 4.40271 12.418 4.63404L8.41801 7.85271C8.29601 7.95071 8.14801 8.00004 8.00001 8.00004ZM8.00741 11.1384L11.5821 8.26171C11.8687 8.03171 12.2894 8.07704 12.5194 8.36304C12.7501 8.65038 12.7047 9.06971 12.4181 9.30104L8.41808 12.5197C8.29608 12.6177 8.14808 12.6664 8.00008 12.6664C7.84808 12.6664 7.69674 12.615 7.57341 12.5117L3.57341 9.17838C3.29008 8.94304 3.25208 8.52304 3.48808 8.23971C3.72341 7.95704 4.14341 7.91838 4.42674 8.15438L8.00741 11.1384Z" fill="#A9161C"/>
</svg>
